Coordinates
version=1
nRows=19
nColumns=36
inDegrees=yes

Units are S.I. units (second, meters, Newtons, ...)
If the header above contains a line with 'inDegrees', this indicates whether rotational values are in degrees (yes) or radians (no).

endheader
time	pelvis_tilt	pelvis_list	pelvis_rotation	pelvis_tx	pelvis_ty	pelvis_tz	hip_flexion_r	hip_adduction_r	hip_rotation_r	knee_angle_r	knee_angle_r_beta	ankle_angle_r	subtalar_angle_r	mtp_angle_r	hip_flexion_l	hip_adduction_l	hip_rotation_l	knee_angle_l	knee_angle_l_beta	ankle_angle_l	subtalar_angle_l	mtp_angle_l	lumbar_extension	lumbar_bending	lumbar_rotation	arm_flex_r	arm_add_r	arm_rot_r	elbow_flex_r	pro_sup_r	arm_flex_l	arm_add_l	arm_rot_l	elbow_flex_l	pro_sup_l
      0.00000000	     -2.43086689	      0.36434175	      0.48600364	     -1.02766857	      1.38759500	     -0.07114712	     -1.17610290	      1.33761857	    -13.52365854	      0.11558328	      0.00201731	      8.81509306	     -5.78028370	     -5.18582670	     -1.74808757	      0.06915081	    -13.73013620	      0.13658365	      0.00238383	      3.54580777	     -5.21631424	     -5.18582670	     -9.47411285	      0.82452670	      0.17690779	     -2.08715636	     -9.35885836	     15.21830716	     22.11583245	     71.27355324	     -4.26827590	    -14.18432917	     19.10383323	     22.02659214	     61.50488918
      0.00416670	     -3.69239182	     -0.09618838	      0.13911512	     -1.02749185	      1.38883614	     -0.07388722	      0.09631046	      1.91402885	    -14.21215064	      0.13486997	      0.00235392	     10.32164456	     -4.21343824	     -5.43831142	     -0.08049549	     -0.11479887	    -16.59270205	      0.13901464	      0.00242626	      5.69966496	     -3.08236360	     -5.43831142	     -7.69813540	      1.35190825	      1.07882028	     -2.34997255	     -8.70892554	     13.02623200	     19.61367678	     70.42682779	     -4.06722225	    -12.67965986	     15.95573888	     19.64802548	     60.87946439
      0.00833330	     -4.29557176	      0.41403337	     -0.69239799	     -1.02903341	      1.39058967	     -0.07249030	      0.88180638	      1.54640951	    -14.69463991	      0.13086819	      0.00228408	     10.53317950	     -3.99121395	     -5.64607778	      0.77548683	      0.39074890	    -18.28619751	      0.13483700	      0.00235335	      6.56950204	     -2.90344084	     -5.64607778	     -6.91769710	      0.31419971	      2.00398588	     -3.19651709	     -8.35629655	     12.42641018	     19.26105993	     69.64168478	     -4.20430240	    -13.08332885	     15.16744081	     19.75572982	     60.82152889
      0.01250000	     -4.46867104	      0.65455386	     -1.05444240	     -1.02845876	      1.39042241	     -0.07237019	      1.23240692	      1.26367029	    -15.08649082	      0.12061383	      0.00210511	     10.86813705	     -3.10074309	     -6.01518865	      1.00454758	      0.68736103	    -19.23477457	      0.12352244	      0.00215587	      7.43085158	     -2.14853719	     -6.01518865	     -6.52033892	     -0.06515059	      2.27494700	     -3.80391065	     -8.42272105	     12.13029594	     19.06850718	     68.08566077	     -4.59179352	    -13.47220028	     15.20476531	     19.53742647	     61.26679512
      0.01666670	     -4.70410866	      0.80925015	     -1.32449008	     -1.02821056	      1.38770296	     -0.07119391	      1.52607545	      1.16726561	    -14.87317987	      0.11329367	      0.00197735	     10.92460500	     -3.10952040	     -6.44359451	      1.23245382	      0.86452731	    -19.57113192	      0.11874732	      0.00207253	      7.60947841	     -2.30144961	     -6.44359451	     -6.11280774	     -0.21587174	      2.69607880	     -4.39622921	     -8.67998591	     13.25439284	     19.13796648	     66.15021616	     -4.80254669	    -13.89342696	     16.84300450	     19.32587520	     61.80845332
      0.02083330	     -4.88855902	      0.96450459	     -1.49250244	     -1.03236554	      1.38683830	     -0.07280141	      1.78780709	      0.99909472	    -14.63280595	      0.10896798	      0.00190185	     10.93963482	     -3.22909259	     -6.55234452	      1.49168841	      1.12183627	    -19.37665266	      0.11872193	      0.00207209	      7.73658147	     -2.70037137	     -6.55234452	     -6.08264196	     -0.25003759	      2.99476931	     -4.62800323	     -8.97759584	     13.46697705	     19.32154910	     65.80916787	     -4.80824847	    -14.01056100	     17.01121033	     19.65404488	     61.68071647
      0.02500000	     -5.20835787	      1.04272114	     -1.55995268	     -1.03111637	      1.38596992	     -0.07232215	      2.16000881	      0.91060708	    -14.45696001	      0.10545028	      0.00184045	     10.86155431	     -3.28749922	     -6.67502726	      1.85305513	      1.23981878	    -19.25677585	      0.11933687	      0.00208282	      7.85043380	     -2.75702183	     -6.67502726	     -5.68794734	     -0.22505038	      3.16232894	     -4.73993671	     -9.31261988	     14.95708654	     19.07494541	     65.57404796	     -4.79971904	    -14.21247793	     18.45421571	     19.52375826	     61.49192731
      0.02916670	     -5.41038758	      1.08365840	     -1.64283285	     -1.03001505	      1.38910924	     -0.07353457	      2.35971849	      0.82642679	    -14.19071265	      0.10266439	      0.00179183	     10.62498002	     -3.48485403	     -6.85544378	      2.06709237	      1.31793136	    -19.02737479	      0.11880443	      0.00207353	      7.73741480	     -2.99113958	     -6.85544378	     -5.49620205	     -0.15840327	      3.38353857	     -4.94464908	     -9.64051520	     16.11367954	     18.99481614	     65.00365052	     -4.88290908	    -14.28825744	     19.56339749	     19.65273996	     60.66951836
      0.03333330	     -5.51901375	      1.10429730	     -1.70542567	     -1.02810952	      1.39063544	     -0.07270948	      2.42304615	      0.79771818	    -14.15839426	      0.09935996	      0.00173416	     10.33677036	     -3.70063959	     -6.92095238	      2.13242957	      1.32167051	    -18.90547251	      0.11833085	      0.00206526	      7.34022264	     -3.33068888	     -6.92095238	     -5.39032611	     -0.13239270	      3.60817061	     -5.24875122	     -9.76987590	     16.04228049	     18.98439535	     64.59478072	     -5.13922283	    -14.27300750	     19.40816572	     19.85094059	     60.38397235
      0.03750000	     -5.66072270	      1.11371087	     -1.83189715	     -1.02922289	      1.38931544	     -0.07222461	      2.54563649	      0.79477972	    -14.10283252	      0.09689915	      0.00169121	      9.91598078	     -4.06841092	     -7.04685663	      2.26095102	      1.30426836	    -18.80468610	      0.11839488	      0.00206638	      6.89038083	     -3.70971138	     -7.04685663	     -5.27144835	     -0.12925997	      3.78591370	     -5.51787899	     -9.89023662	     15.78742691	     19.08430045	     63.94504464	     -5.38978541	    -14.27852119	     18.97171643	     20.11666939	     60.03615125
      0.04166670	     -5.73029351	      1.11909452	     -1.90771067	     -1.02725617	      1.39230244	     -0.07117528	      2.57365019	      0.82478690	    -14.27322531	      0.09408868	      0.00164216	      9.62270561	     -4.06006930	     -7.11114068	      2.28028852	      1.24603445	    -18.92827504	      0.11743619	      0.00204965	      6.56751910	     -3.79570876	     -7.11114068	     -5.14318207	     -0.18760773	      3.87464541	     -5.79850125	     -9.92492674	     15.69064351	     19.09985813	     63.54336742	     -5.65038484	    -14.34434305	     18.74927951	     20.29896917	     59.87563380
      0.04583330	     -5.92950671	      1.12963826	     -2.05496140	     -1.02842868	      1.38883097	     -0.07173638	      2.79592807	      0.83161672	    -14.35284975	      0.09233793	      0.00161160	      9.36543453	     -4.19455468	     -7.14958109	      2.48116745	      1.23417220	    -18.99286942	      0.11665913	      0.00203609	      6.39628244	     -3.66682637	     -7.14958109	     -4.82510948	     -0.20405615	      4.00342114	     -6.01468245	    -10.01552048	     15.74918008	     18.92378442	     63.34101494	     -5.87135869	    -14.38534236	     18.71283389	     20.29280146	     59.82815355
      0.05000000	     -5.99665631	      1.10794236	     -2.12356964	     -1.02893710	      1.38397449	     -0.07212100	      2.87621585	      0.88031765	    -14.45336205	      0.09120466	      0.00159182	      9.29836239	     -4.16559715	     -7.19721738	      2.54188254	      1.19873619	    -19.22618481	      0.11692322	      0.00204070	      6.39301173	     -3.44666403	     -7.19721738	     -4.71900329	     -0.20248296	      4.00572382	     -6.25450883	    -10.13577667	     15.67750676	     19.01779266	     63.06084641	     -6.08188487	    -14.47828971	     18.63327469	     20.52125632	     59.86259443
      0.05416670	     -6.18529453	      1.10129873	     -2.20997089	     -1.02965351	      1.37918335	     -0.07180852	      3.11413120	      0.90687825	    -14.34200450	      0.09072887	      0.00158352	      9.13462531	     -4.66516177	     -7.21394846	      2.75277538	      1.18005898	    -19.09483831	      0.11725179	      0.00204643	      6.21099307	     -3.85862540	     -7.21394846	     -4.45733131	     -0.18182711	      4.11477858	     -6.75341957	    -10.38265054	     15.54704018	     19.52398870	     62.91357640	     -6.43110665	    -14.68283207	     18.47382659	     21.15321224	     59.85631437
      0.05833330	     -6.15230714	      1.11356981	     -2.26634762	     -1.02879734	      1.38564382	     -0.07254490	      3.06904085	      0.88165106	    -14.46358598	      0.09029558	      0.00157596	      9.06480814	     -4.65380013	     -7.23305840	      2.70042458	      1.19296928	    -19.11896701	      0.11704304	      0.00204279	      6.09999110	     -3.83622572	     -7.23305840	     -4.47904645	     -0.21311217	      4.14692264	     -6.97005622	    -10.47175813	     15.31895946	     19.40426505	     62.75508549	     -6.52985598	    -14.66412497	     18.27476180	     21.13675573	     59.86323153
      0.06250000	     -6.25425550	      1.13763480	     -2.34726282	     -1.02959975	      1.38377475	     -0.07122755	      3.21810601	      0.88066556	    -14.34751713	      0.08929901	      0.00155856	      9.11405147	     -4.78280039	     -7.27151076	      2.80028556	      1.20485268	    -19.12663443	      0.11740471	      0.00204910	      6.11399982	     -3.88865696	     -7.27151076	     -4.35680733	     -0.25547295	      4.27063751	     -7.21335157	    -10.54434414	     14.98763163	     19.34365593	     62.42747401	     -6.64630806	    -14.70576801	     17.87695062	     21.28326911	     59.86086028
      0.06666670	     -6.43726751	      1.16062009	     -2.35934602	     -1.02812183	      1.38389070	     -0.07012610	      3.40788765	      0.90258706	    -14.43928388	      0.08845527	      0.00154384	      9.10954680	     -4.67894591	     -7.30191686	      2.96991591	      1.18791168	    -19.16879856	      0.11693228	      0.00204085	      5.87400789	     -4.17370083	     -7.30191686	     -4.04556089	     -0.30819300	      4.28501971	     -7.55471238	    -10.55678890	     14.63039722	     19.28061411	     62.09016744	     -6.87472345	    -14.78055800	     17.49001110	     21.35957422	     59.90521584
      0.07083330	     -6.54845197	      1.18593844	     -2.39794947	     -1.02773947	      1.38046470	     -0.07037916	      3.50071015	      0.90699440	    -14.44751052	      0.08830475	      0.00154121	      9.18162380	     -4.72244626	     -7.31405149	      3.03687194	      1.20129260	    -19.46208480	      0.11776094	      0.00205532	      5.97195669	     -4.18861217	     -7.31405149	     -3.84754386	     -0.34936859	      4.36415808	     -7.94681784	    -10.65899832	     14.58555309	     19.42027594	     61.98702596	     -7.15561083	    -14.91496827	     17.47973290	     21.63429967	     60.04422881
      0.07500000	     -6.70101875	      1.23083228	     -2.40319502	     -1.02718256	      1.38501772	     -0.07051999	      3.63742602	      0.87522694	    -14.63833272	      0.08809055	      0.00153747	      9.12331052	     -4.69997366	     -7.35221928	      3.16991187	      1.23647608	    -19.76344311	      0.11786781	      0.00205718	      5.98908482	     -3.94745844	     -7.35221928	     -3.54848291	     -0.40311446	      4.43002208	     -8.21334492	    -10.74157273	     14.56691362	     19.24860917	     61.74061215	     -7.30582975	    -14.95986636	     17.56251809	     21.53702515	     60.41109373
